<?xml version="1.0" encoding="UTF-8"?>
<svg id="Calque_1" data-name="Calque 1" xmlns="http://www.w3.org/2000/svg" viewBox="0 0 1135.62 1068.03">
  <path d="M872.19,706.23c.62-1.04,1.23-2.08,1.84-3.13,39.97-68.94,62.84-149,62.84-234.42C936.87,210.11,727.25.5,468.68.5S.5,210.11.5,468.68s209.61,468.18,468.18,468.18c94.86,0,183.12-28.2,256.86-76.69,192.03,152.13,368.07,239.11,403.35,196.59,34.58-41.68-78.07-193.28-256.7-350.53ZM688.62,702.44c-24.19,22.77-51.92,41.83-82.27,56.27-41.72,19.84-88.4,30.94-137.67,30.94-177.26,0-320.97-143.7-320.97-320.97S291.42,147.71,468.68,147.71s320.97,143.7,320.97,320.97c0,51.14-11.95,99.48-33.22,142.39-6.11,12.31-12.98,24.18-20.56,35.53-13.6,20.38-29.47,39.12-47.25,55.84Z" style="stroke: #00000; stroke-miterlimit: 10;"/>
</svg>